<svg xmlns="http://www.w3.org/2000/svg" viewBox="0 0 544 92" width="544" height="92">
  <g fill="none" fill-rule="evenodd">
    <g transform="translate(480)">
      <rect width="60" height="88" x="2" y="2" fill="#FBFBFB" stroke="#3EAF7C" stroke-width="4" rx="16"/>
      <path fill="#303030" fill-rule="nonzero" d="M42.2184697,64.2569224 C46.1230863,64.2569224 49.3077026,61.072306 49.3077026,57.1676895 C49.3077026,53.2630729 46.1230863,50.1061489 42.2184697,50.1061489 L38.6184686,50.1061489 L38.6184686,43.9584547 L42.2184697,43.9584547 C46.1230863,43.9584547 49.3077026,40.8015307 49.3077026,36.8969141 C49.3077026,32.9922975 46.1230863,29.8076812 42.2184697,29.8076812 C38.3138531,29.8076812 35.1569291,32.9922975 35.1569291,36.8969141 L35.1569291,40.4969152 L28.843081,40.4969152 L28.843081,36.8969141 C28.843081,32.9922975 25.686157,29.8076812 21.7815404,29.8076812 C17.8769238,29.8076812 14.6923075,32.9922975 14.6923075,36.8969141 C14.6923075,40.8015307 17.8769238,43.9584547 21.7815404,43.9584547 L25.3815415,43.9584547 L25.3815415,50.1061489 L21.7815404,50.1061489 C17.8769238,50.1061489 14.6923075,53.2630729 14.6923075,57.1676895 C14.6923075,61.072306 17.8769238,64.2569224 21.7815404,64.2569224 C25.686157,64.2569224 28.843081,61.072306 28.843081,57.1676895 L28.843081,53.5676884 L35.1569291,53.5676884 L35.1569291,57.1676895 C35.1569291,61.072306 38.3138531,64.2569224 42.2184697,64.2569224 Z M25.3815415,40.4969152 L21.7815404,40.4969152 C19.7876936,40.4969152 18.153847,38.8907608 18.153847,36.8969141 C18.153847,34.9030673 19.7876936,33.2692207 21.7815404,33.2692207 C23.7753872,33.2692207 25.3815415,34.9030673 25.3815415,36.8969141 L25.3815415,40.4969152 Z M42.2184697,40.4969152 L38.6184686,40.4969152 L38.6184686,36.8969141 C38.6184686,34.9030673 40.2246229,33.2692207 42.2184697,33.2692207 C44.2123164,33.2692207 45.8461631,34.9030673 45.8461631,36.8969141 C45.8461631,38.8907608 44.2123164,40.4969152 42.2184697,40.4969152 Z M35.1569291,50.1061489 L28.843081,50.1061489 L28.843081,43.9584547 L35.1569291,43.9584547 L35.1569291,50.1061489 Z M21.7815404,60.7953829 C19.7876936,60.7953829 18.153847,59.1615362 18.153847,57.1676895 C18.153847,55.1738427 19.7876936,53.5676884 21.7815404,53.5676884 L25.3815415,53.5676884 L25.3815415,57.1676895 C25.3815415,59.1615362 23.7753872,60.7953829 21.7815404,60.7953829 Z M42.2184697,60.7953829 C40.2246229,60.7953829 38.6184686,59.1615362 38.6184686,57.1676895 L38.6184686,53.5676884 L42.2184697,53.5676884 C44.2123164,53.5676884 45.8461631,55.1738427 45.8461631,57.1676895 C45.8461631,59.1615362 44.2123164,60.7953829 42.2184697,60.7953829 Z"/>
    </g>
    <g transform="translate(400)">
      <rect width="60" height="88" x="2" y="2" fill="#FBFBFB" stroke="#E1E1E1" stroke-width="4" rx="16"/>
      <path fill="#303030" fill-rule="nonzero" d="M36.292314,64.6369233 C39.006161,64.6369233 42.1077004,63.8338461 44.1015472,62.5323072 L42.3015466,59.3753832 C40.7230846,60.2061527 38.8953918,60.759999 36.7076988,60.759999 C32.7200053,60.759999 31.1415432,59.0153831 31.1415432,55.7753821 L31.1415432,38.4399922 L40.6677,38.4399922 L41.2215463,34.8399911 L31.1415432,34.8399911 L31.1415432,27.6676813 L26.4892341,28.2215276 L26.4892341,34.8399911 L19.7876936,34.8399911 L19.7876936,38.4399922 L26.4892341,38.4399922 L26.4892341,55.8307668 C26.4892341,60.9815375 30.0338506,64.6369233 36.292314,64.6369233 Z"/>
    </g>
    <g transform="translate(320)">
      <rect width="60" height="88" x="2" y="2" fill="#FBFBFB" stroke="#E1E1E1" stroke-width="4" rx="16"/>
      <path fill="#303030" fill-rule="nonzero" d="M29.369235,64.6369233 C32.7753899,64.6369233 36.4030833,63.0307689 38.7015455,60.0676911 L39.089238,64 L43.0492392,64 L43.0492392,34.8399911 L38.3969301,34.8399911 L38.3969301,56.3015361 C36.818468,58.7938446 33.6892363,60.9261529 30.50462,60.9261529 C27.1261574,60.9261529 25.60308,59.3199986 25.60308,55.498459 L25.60308,34.8399911 L20.9507709,34.8399911 L20.9507709,56.0523053 C20.9507709,61.4523069 23.7200025,64.6369233 29.369235,64.6369233 Z"/>
    </g>
    <g transform="translate(240)">
      <rect width="60" height="88" x="2" y="2" fill="#FBFBFB" stroke="#E1E1E1" stroke-width="4" rx="16"/>
      <path fill="#303030" fill-rule="nonzero" d="M20.9507709,75.741542 L25.60308,75.1600034 L25.60308,61.2584607 C27.5415422,63.5292306 30.1169275,64.6369233 33.3015439,64.6369233 C40.8892385,64.6369233 44.5446242,58.2399983 44.5446242,49.4061494 C44.5446242,40.2676851 41.7753926,34.2307602 33.9938518,34.2307602 C30.4769277,34.2307602 27.4307729,35.9199915 25.2984645,38.9107616 L24.9107721,34.8399911 L20.9507709,34.8399911 L20.9507709,75.741542 Z M32.2769282,60.759999 C29.5076966,60.759999 27.1261574,59.3753832 25.60308,57.1046133 L25.60308,42.6492243 C27.181542,40.2953774 29.6461582,37.9692229 32.8861592,37.9692229 C37.4553913,37.9692229 39.5600073,41.7630702 39.5600073,49.3784571 C39.5600073,57.1599979 37.1230835,60.759999 32.2769282,60.759999 Z"/>
    </g>
    <g transform="translate(160)">
      <rect width="60" height="88" x="2" y="2" fill="#FBFBFB" stroke="#E1E1E1" stroke-width="4" rx="16"/>
      <path fill="#303030" fill-rule="nonzero" d="M25.60308,64 L25.60308,42.7599936 C27.1261574,40.4892236 30.0338506,37.8861459 33.4676978,37.8861459 C37.8707761,37.8861459 38.4523147,40.2953774 38.4523147,46.2492254 L38.4523147,64 L43.1046238,64 L43.1046238,42.8153782 C43.1046238,37.4430689 40.6400077,34.2307602 34.9076982,34.2307602 C31.5292357,34.2307602 27.6523114,35.8922992 25.2707722,38.8830693 L24.9107721,34.8399911 L20.9507709,34.8399911 L20.9507709,64 L25.60308,64 Z"/>
    </g>
    <g transform="translate(80)">
      <rect width="60" height="88" x="2" y="2" fill="#FBFBFB" stroke="#E1E1E1" stroke-width="4" rx="16"/>
      <path fill="#303030" fill-rule="nonzero" d="M32.000005,27.7507582 C34.0769288,27.7507582 35.4061599,26.3107578 35.4061599,24.4276803 C35.4061599,22.5999874 34.0769288,21.1876793 32.000005,21.1876793 C30.0338506,21.1876793 28.6492348,22.5999874 28.6492348,24.4276803 C28.6492348,26.3107578 30.0338506,27.7507582 32.000005,27.7507582 Z M43.9353933,64 L43.9353933,60.316922 L35.7107754,60.316922 L35.7107754,34.8399911 L22.3353867,34.8399911 L22.3353867,38.5230692 L31.0584636,38.5230692 L31.0584636,60.316922 L22.0584636,60.316922 L22.0584636,64 L43.9353933,64 Z"/>
    </g>
    <rect width="60" height="88" x="2" y="2" fill="#FBFBFB" stroke="#E1E1E1" stroke-width="4" rx="16"/>
    <path fill="#303030" fill-rule="nonzero" d="M26.6000034,64 L26.6000034,49.8492265 L31.473851,49.8492265 C40.0861613,49.8492265 46.2338555,46.4984562 46.2338555,37.5815304 C46.2338555,29.5784511 40.6123154,25.8676807 31.5292357,25.8676807 L21.7815404,25.8676807 L21.7815404,64 L26.6000034,64 Z M31.9169281,45.9723022 L26.6000034,45.9723022 L26.6000034,29.6892204 L32.1107743,29.6892204 C37.2892374,29.6892204 41.0830847,31.7384517 41.0830847,37.6369151 C41.0830847,44.1723017 37.2338528,45.9723022 31.9169281,45.9723022 Z"/>
  </g>
</svg>
